<?xml version="1.0" encoding="UTF-8"?>
<svg xmlns="http://www.w3.org/2000/svg" width="128" height="128" viewBox="0 0 24 24" fill="none">
  <defs>
    <linearGradient id="g" x1="0" x2="1">
      <stop offset="0%" stop-color="#9B5DE5" />
      <stop offset="100%" stop-color="#6a3ecb" />
    </linearGradient>
  </defs>
  <rect x="0" y="0" width="24" height="24" rx="6" fill="url(#g)" opacity="0.08"/>
  <path d="M4 7.5C4 5.57 5.57 4 7.5 4h9C18.43 4 20 5.57 20 7.5v4c0 1.93-1.57 3.5-3.5 3.5H12l-3 2v-2H7.5C5.57 15 4 13.43 4 11.5v-4z" fill="#fff" opacity="0.95"/>
  <circle cx="9" cy="10" r="0.9" fill="#9B5DE5"/>
  <circle cx="14" cy="10" r="0.9" fill="#9B5DE5"/>
  <path d="M8.5 13.2c0.8 0.7 1.9 1.1 3 1.1s2.2-0.4 3-1.1" stroke="#9B5DE5" stroke-width="0.6" stroke-linecap="round" stroke-linejoin="round" fill="none"/>
  <path d="M6.5 8.5c0.4-0.4 1.1-0.6 2-0.6" stroke="#6a3ecb" stroke-width="0.5" stroke-linecap="round"/>
</svg>
